<?xml version="1.0" encoding="utf-8"?>
<!-- Generator: Adobe Illustrator 19.2.1, SVG Export Plug-In . SVG Version: 6.00 Build 0)  -->
<svg version="1.1" baseProfile="tiny" id="Paraf_Logo_Pantone_801C"
	 xmlns="http://www.w3.org/2000/svg" xmlns:xlink="http://www.w3.org/1999/xlink" x="0px" y="0px" viewBox="0 0 518.6 335.6"
	 xml:space="preserve">
<path fill="#26DCFD" d="M204.4,48.3c-3.8-15.3-14.9-28.4-29.9-34.9c-15.4-6.7-32.6-5.9-47.3,2.3c-36.2,20-56.2,72.6-67.2,122
	c-16.1-10.4-27.4-27.3-32.9-49L9.7,99.5c8.2,26.3,24.3,46.8,46.2,58.4c-6.5,35.9-8.5,67.2-9.1,79.3l-0.1,1.2
	c-0.4,8.5-1.4,27.8-0.5,48.9l19.3-12.1c-0.2-15.6,0.5-29.2,0.8-35.8l0.1-1.3c1-20.5,3.5-46.3,8.2-72.8c30.6,8.2,65.3,0.2,94.7-22.3
	C197.3,121.5,212.4,80.8,204.4,48.3z M157.3,127.4c-24.9,19.1-54,25.9-79,18.6c10.6-49.3,28.9-97,58.3-113.3
	c9.3-5.2,20.2-5.7,30-1.4c9.4,4.1,16.4,12.2,18.8,21.6C191.4,77.5,178.8,110.9,157.3,127.4z M497.8,148c9.4-19,14.8-49,8.3-67.8
	c-4.6-13.1-14.9-20.3-28-19.9c-25,0.8-34.7,32.1-39.4,47.1c-11.6,37.4-18.5,78.1-20.8,123c-0.8,0.6-1.5,1.1-2.3,1.7
	c-4.3,3.2-14.2,10.6-18.2,10.9c-0.4-0.8-1.4-2.9-1.8-8c-0.5-5.9,0.1-21.2,0.5-33.4c0.3-7.5,0.5-14,0.5-17.9h0c0,0,0-0.1,0-0.1
	c-0.2-15.6-9.5-25.7-23.7-25.7c-11.4,0-25.1,6.7-35.8,17.5c-11.5,11.6-20.7,25.6-25.8,39.3c-2.9,7.8-4.5,15.2-4.7,21.8
	c-1.9,1.5-3.7,2.8-4.8,3.6c-13.8,9.2-17.7,6-19,5c-6.2-5-0.2-20.4,5-34c4.9-12.7,9.6-24.6,7.4-34.6c-0.7-3-2.7-5.4-5.5-6.6
	c-2.8-1.2-6-1-8.6,0.5c-4.1,2.4-17.5,5.4-25.4,5.7c0.2-1.1,0.4-2.2,0.6-3.2c0.9-5.6,3-18.8-7.2-28.8c-6.8-6.6-17.9-7.2-26.8-1.4
	c-9.9,6.4-13.7,18.3-9.5,29.6c2.6,6.9,7.9,14.6,19,19.1c-7.6,22-20.9,47.2-33.4,56.6c-1.7-5.9-3.3-20.8-1.1-57.9
	c0.2-2.9,0.3-4.9,0.3-6c0.4-5.6,0.2-13.6-5.5-19.8c-2.6-2.8-7.3-6.2-15.1-6.2c-4.4,0-9.2,1.1-14.8,3.2c-4.8,1.8-9.4,4.1-13.2,6.5
	c-17,10.7-33.2,30.3-40.4,48.8c-5.6,14.5-4.9,29.2,2,39.3c5,7.3,12.9,11.5,21.7,11.5c0,0,0,0,0,0c8.9,0,18.3-4.2,27.4-12.1
	c7.7-6.7,13.5-12.9,18.1-19.4c1.2,17.4,4.7,26.6,11.1,30.7c2.3,1.5,4.9,2.2,7.6,2.2c2.5,0,5-0.6,7.4-1.9c20.4-10.7,37.8-45,46.8-72
	c1.5,0.1,3,0.1,4.6,0c4.8-0.1,12.2-1,19.2-2.7c-1.3,3.9-2.9,8.1-4.4,11.8c-7.3,18.6-16.3,41.8,0.7,55.5c10.5,8.5,24.1,7.3,40.5-3.3
	c4.4,7,11.3,10.9,19.6,10.9c16.8,0,33.1-15.5,34.9-17.2c4-3.9,7.6-8.1,10.9-12.6c0.5,5.4,2.2,18.1,12.7,22.8c2.5,1.1,5,1.6,7.5,1.6
	c6.7,0,13.6-3.4,20.1-7.6c-0.4,22.9,0.4,46.9,2.2,72l18.3-11.4c-1.6-26-2-50.8-1.2-74.3c14-9.5,26.5-15.6,37.1-18.3l8.1-20.3
	c-13,0.7-27.5,5.7-43.9,15.3c2.9-37.7,9.2-72.3,19.1-104.2c3.1-10,10.3-33.4,21.9-33.8c4.1-0.1,7.3,1,9.4,7.1
	c4.3,12.5,0.4,33.5-4.8,47.6L497.8,148z M178.7,183.1c-0.3,4.4-1.6,8.9-2.4,11.2c-6.6,20.4-11.6,31.7-29.1,46.9
	c-5.5,4.8-10.8,7.4-14.9,7.4h0c-2.6,0-4.6-1.1-6.1-3.2c-2.5-3.6-4-11.5,0-21.7c5.7-14.5,19.5-31.2,32.9-39.6
	c2.8-1.8,6.2-3.4,9.9-4.9c4.1-1.6,6.6-1.9,7.9-1.9c0.8,0,1.2,0.1,1.2,0.1C178.4,177.5,179,178.6,178.7,183.1z M237.6,170
	c-0.2,1-0.3,2-0.5,3c-3.2-1.7-5.3-4.1-6.4-7.1c-1-2.7-0.6-4.9,1.3-6.6c1.3-1.2,2.8-1.6,3.6-1.6c0.2,0,0.3,0,0.4,0.1
	C237.9,159.7,238.8,162.4,237.6,170z M377.7,183.9c0,2.3-0.3,5-0.9,8.1c-3.5,17.2-11.9,32.7-24.3,44.7c-5.9,5.8-15.6,11.8-21.6,11.8
	c-1.5,0-2.8-0.2-4.2-3c-1.8-3.8-2.2-12.2,2.3-24c4.3-11.4,11.9-23,21.6-32.7c8.1-8.2,17.2-11.9,22.3-11.9
	C375.1,176.9,377.6,176.9,377.7,183.9L377.7,183.9z M490.3,246.6V266h19.4v-19.4H490.3z"/>
</svg>
